<svg width="21" height="16" viewBox="0 0 21 16" fill="none" xmlns="http://www.w3.org/2000/svg">
<path d="M10.5 0C11.3122 0 12.0912 0.406896 12.6655 1.13117C13.2398 1.85545 13.5625 2.83778 13.5625 3.86207C13.5625 4.88635 13.2398 5.86869 12.6655 6.59296C12.0912 7.31724 11.3122 7.72414 10.5 7.72414C9.68777 7.72414 8.90882 7.31724 8.33449 6.59296C7.76016 5.86869 7.4375 4.88635 7.4375 3.86207C7.4375 2.83778 7.76016 1.85545 8.33449 1.13117C8.90882 0.406896 9.68777 0 10.5 0ZM4.375 2.75862V2.75862C5.27307 2.75862 5.63535 3.7692 5.73055 4.66221C5.76342 4.97048 5.81487 5.27424 5.88399 5.57082C6.19625 6.91059 6.51987 8.60664 5.26989 9.18111C4.99096 9.3093 4.68971 9.37931 4.375 9.37931C3.67881 9.37931 3.01113 9.03054 2.51884 8.40973C2.02656 7.78892 1.75 6.94692 1.75 6.06897C1.75 5.19101 2.02656 4.34901 2.51884 3.7282C3.01113 3.10739 3.67881 2.75862 4.375 2.75862ZM16.625 2.75862C17.3212 2.75862 17.9889 3.10739 18.4812 3.7282C18.9734 4.34901 19.25 5.19101 19.25 6.06897C19.25 6.94692 18.9734 7.78892 18.4812 8.40973C17.9889 9.03054 17.3212 9.37931 16.625 9.37931C16.3103 9.37931 16.009 9.3093 15.7301 9.18111C14.4801 8.60664 14.8038 6.91059 15.116 5.57082C15.1851 5.27424 15.2366 4.97048 15.2694 4.66221C15.3647 3.7692 15.7269 2.75862 16.625 2.75862V2.75862ZM4.8125 14.069C4.8125 11.7848 7.35875 9.93103 10.5 9.93103C13.6412 9.93103 16.1875 11.7848 16.1875 14.069V14.069C16.1875 15.1354 15.3229 16 14.2565 16H6.74353C5.67705 16 4.8125 15.1354 4.8125 14.069V14.069ZM1.53125 16C0.685564 16 0 15.3144 0 14.4688V14.3448C0 13.5871 0.40358 12.8887 1.08205 12.3306C1.97406 11.5969 3.0625 12.914 3.0625 14.069V14.069V14.4687C3.0625 15.3144 2.37694 16 1.53125 16V16ZM21 14.4688C21 15.3144 20.3144 16 19.4688 16V16C18.6231 16 17.9375 15.3144 17.9375 14.4687V14.069V14.069C17.9375 12.914 19.0259 11.5969 19.918 12.3306C20.5964 12.8887 21 13.5871 21 14.3448V14.4688Z" fill="black"/>
</svg>
