<svg width="19" height="20" viewBox="0 0 19 20" fill="none" xmlns="http://www.w3.org/2000/svg">
<path d="M9.06798 7.27275C8.82949 7.27275 8.63616 7.07942 8.63616 6.84093V6.79548C8.63616 6.55699 8.82949 6.36366 9.06798 6.36366V6.36366C9.30647 6.36366 9.4998 6.55699 9.4998 6.79548V6.84093C9.4998 7.07942 9.30647 7.27275 9.06798 7.27275V7.27275ZM17.2725 2.37262e-05C17.7306 2.37262e-05 18.17 0.191582 18.4939 0.532557C18.8178 0.873532 18.9998 1.33599 18.9998 1.81821V14.5455C18.9998 15.0277 18.8178 15.4902 18.4939 15.8311C18.17 16.1721 17.7306 16.3637 17.2725 16.3637H5.18162C4.72352 16.3637 4.28418 16.1721 3.96025 15.8311C3.63632 15.4902 3.45434 15.0277 3.45434 14.5455V1.81821C3.45434 1.33599 3.63632 0.873532 3.96025 0.532557C4.28418 0.191582 4.72352 2.37262e-05 5.18162 2.37262e-05H17.2725ZM0.863436 3.63639C1.34041 3.63639 1.72707 4.02305 1.72707 4.50002V11.2727C1.72707 15.0885 4.82038 18.1818 8.63616 18.1818H14.6362C15.1382 18.1818 15.5453 18.5889 15.5453 19.0909V19.0909C15.5453 19.593 15.1382 20 14.6362 20H1.72707C1.26897 20 0.829632 19.8085 0.505706 19.4675C0.18178 19.1265 -0.000200479 18.6641 -0.000200479 18.1818V4.50002C-0.000200479 4.02305 0.386463 3.63639 0.863436 3.63639V3.63639ZM12.9543 7.27275C12.4774 7.27275 12.0907 7.65941 12.0907 8.13639V8.2273C12.0907 8.70427 12.4774 9.09093 12.9543 9.09093V9.09093C13.4313 9.09093 13.818 9.4776 13.818 9.95457V10.0455C13.818 10.5225 14.2046 10.9091 14.6816 10.9091V10.9091C15.1586 10.9091 15.5453 10.5225 15.5453 10.0455V9.95457C15.5453 9.4776 15.9319 9.09093 16.4089 9.09093V9.09093C16.8859 9.09093 17.2725 8.70427 17.2725 8.2273V8.13639C17.2725 7.65942 16.8859 7.27275 16.4089 7.27275V7.27275C15.9319 7.27275 15.5453 6.88609 15.5453 6.40911V6.31821C15.5453 5.84123 15.1586 5.45457 14.6816 5.45457V5.45457C14.2046 5.45457 13.818 5.84123 13.818 6.31821V6.40911C13.818 6.88609 13.4313 7.27275 12.9543 7.27275V7.27275ZM11.2271 10V6.36366C11.2271 5.35457 10.4498 4.54548 9.4998 4.54548H8.63616C8.17806 4.54548 7.73872 4.73704 7.4148 5.07801C7.09087 5.41899 6.90889 5.88145 6.90889 6.36366V7.27275C6.90889 8.28184 7.68616 9.09093 8.63616 9.09093H9.04525C9.29629 9.09093 9.4998 9.29444 9.4998 9.54548V9.54548C9.4998 9.79652 9.29629 10 9.04525 10H7.81798C7.3159 10 6.90889 10.407 6.90889 10.9091V10.9091C6.90889 11.4112 7.3159 11.8182 7.81798 11.8182H9.4998C9.9579 11.8182 10.3972 11.6266 10.7212 11.2857C11.0451 10.9447 11.2271 10.4822 11.2271 10Z" fill="black"/>
</svg>
