<svg width="17" height="20" viewBox="0 0 17 20" fill="none" xmlns="http://www.w3.org/2000/svg">
<path d="M14.875 6.66667C15.4386 6.66667 15.9791 6.86735 16.3776 7.22456C16.7761 7.58177 17 8.06625 17 8.57143V18.0952C17 18.6004 16.7761 19.0849 16.3776 19.4421C15.9791 19.7993 15.4386 20 14.875 20H2.125C0.945625 20 0 19.1429 0 18.0952V8.57143C0 8.06625 0.223883 7.58177 0.622398 7.22456C1.02091 6.86735 1.56141 6.66667 2.125 6.66667H9.78274C10.8347 6.66667 11.6875 5.81388 11.6875 4.7619V4.7619C11.6875 4.00414 11.3517 3.27742 10.7539 2.7416C10.1561 2.20578 9.34538 1.90476 8.5 1.90476C7.65462 1.90476 6.84387 2.20578 6.2461 2.7416C5.92974 3.02517 5.68675 3.36221 5.52807 3.72902C5.2951 4.26759 4.8368 4.7619 4.25 4.7619V4.7619C3.6632 4.7619 3.17492 4.27916 3.31866 3.71023C3.53847 2.8402 4.02858 2.03555 4.7435 1.39473C5.73978 0.501699 7.09104 0 8.5 0C9.19765 0 9.88846 0.12317 10.533 0.362478C11.1775 0.601787 11.7632 0.952546 12.2565 1.39473C12.7498 1.83691 13.1411 2.36186 13.4081 2.9396C13.6751 3.51734 13.8125 4.13656 13.8125 4.7619V5.60417C13.8125 6.19097 14.2882 6.66667 14.875 6.66667V6.66667ZM8.5 15.2381C9.06359 15.2381 9.60409 15.0374 10.0026 14.6802C10.4011 14.323 10.625 13.8385 10.625 13.3333C10.625 12.8282 10.4011 12.3437 10.0026 11.9865C9.60409 11.6293 9.06359 11.4286 8.5 11.4286C7.93641 11.4286 7.39591 11.6293 6.9974 11.9865C6.59888 12.3437 6.375 12.8282 6.375 13.3333C6.375 13.8385 6.59888 14.323 6.9974 14.6802C7.39591 15.0374 7.93641 15.2381 8.5 15.2381Z" fill="black"/>
</svg>
